<?xml version="1.0" standalone="no"?>
<!DOCTYPE svg PUBLIC "-//W3C//DTD SVG 20010904//EN"
 "http://www.w3.org/TR/2001/REC-SVG-20010904/DTD/svg10.dtd">
<svg version="1.0" xmlns="http://www.w3.org/2000/svg"
 width="16.000000pt" height="16.000000pt" viewBox="0 0 16.000000 16.000000"
 preserveAspectRatio="xMidYMid meet">
<metadata>
Created by potrace 1.11, written by Peter Selinger 2001-2013
</metadata>
<g transform="translate(0.000000,16.000000) scale(0.001481,-0.001481)"
fill="#000000" stroke="none">
<path d="M5320 8380 c-600 -331 -727 -405 -736 -428 -7 -15 -209 -560 -449
-1212 -240 -652 -442 -1191 -449 -1198 -7 -7 -100 -62 -207 -121 l-194 -108
-3 -200 c-2 -170 -5 -203 -18 -214 -9 -7 -62 -39 -118 -70 l-101 -56 -6 61
c-4 34 -7 139 -8 234 -1 146 -3 172 -16 172 -10 0 -15 10 -15 28 0 24 12 33
120 92 l119 65 -35 18 -35 18 -217 -120 -217 -121 0 -106 0 -107 -432 -241
c-237 -133 -434 -243 -437 -246 -2 -3 772 -448 1721 -989 1482 -844 1729 -982
1749 -975 43 17 3443 1959 3438 1964 -3 3 -200 113 -437 246 l-432 241 -5 -54
-5 -53 -114 -65 c-62 -36 -115 -65 -118 -65 -2 0 -2 106 -1 235 2 183 0 235
-9 235 -8 0 -13 13 -13 29 0 27 9 35 114 93 l114 63 -124 68 -124 68 -125 -71
c-129 -74 -131 -76 -137 -146 l-3 -31 -175 97 c-96 54 -178 106 -182 116 -4
11 -192 726 -418 1589 -226 864 -413 1578 -416 1588 -3 9 -14 17 -24 17 -11 0
-35 14 -53 30 -19 17 -36 30 -38 30 -2 -1 -330 -181 -729 -400z m-281 -2140
c209 -789 379 -1435 378 -1436 -1 -1 -344 191 -762 426 -456 257 -760 434
-760 442 0 8 169 472 375 1030 280 758 377 1011 382 995 4 -12 179 -668 387
-1457z m-856 -883 l259 -145 -44 -25 c-231 -134 -852 -476 -856 -472 -2 2 64
191 149 419 l153 415 40 -24 c23 -13 157 -89 299 -168z m799 -904 c66 -36 126
-76 134 -88 12 -18 14 -67 12 -266 l-3 -243 -120 -68 -120 -67 -3 239 c-2 207
-4 238 -17 234 -11 -5 -15 1 -15 24 0 28 8 34 115 93 63 35 115 66 115 69 0 3
-46 31 -102 63 -120 67 -136 77 -124 77 5 0 62 -30 128 -67z"/>
</g>
</svg>
